<svg width="168" height="39" viewBox="0 0 168 39" fill="none" xmlns="http://www.w3.org/2000/svg">
<path d="M50.2482 10.8004C51.8358 10.8004 53.2097 11.0559 54.3705 11.567C55.548 12.0781 56.4521 12.8034 57.0837 13.7432C57.7152 14.6829 58.0313 15.7957 58.0313 17.0816C58.0313 18.351 57.7152 19.4638 57.0837 20.42C56.4521 21.3597 55.548 22.0851 54.3705 22.5964C53.2097 23.0907 51.8358 23.3381 50.2482 23.3381H46.6388V28.1109H42.4918V10.8004H50.2482ZM50.0182 20.0738C51.2635 20.0738 52.2111 19.8183 52.8595 19.3072C53.5084 18.7796 53.8323 18.0378 53.8323 17.0816C53.8323 16.1089 53.5084 15.367 52.8595 14.856C52.2111 14.3284 51.2635 14.0647 50.0182 14.0647H46.6388V20.0738H50.0182Z" fill="#81818B"/>
<path d="M63.2451 16.5623C63.7223 15.9194 64.3628 15.433 65.1645 15.1033C65.984 14.7736 66.9222 14.6088 67.9806 14.6088V18.1697C67.5369 18.1368 67.2382 18.1203 67.0844 18.1203C65.9409 18.1203 65.0453 18.4335 64.3969 19.06C63.748 19.6699 63.4236 20.5932 63.4236 21.8296V28.111H59.4304V14.8066H63.2451V16.5623Z" fill="#81818B"/>
<path d="M75.5038 28.3085C74.0533 28.3085 72.7476 28.0203 71.5873 27.4431C70.4439 26.8498 69.5477 26.0334 68.8993 24.9948C68.251 23.9562 67.9265 22.7774 67.9265 21.4587C67.9265 20.1398 68.251 18.9611 68.8993 17.9224C69.5477 16.8838 70.4439 16.076 71.5873 15.499C72.7476 14.9055 74.0533 14.6088 75.5038 14.6088C76.9544 14.6088 78.2517 14.9055 79.3951 15.499C80.5386 16.076 81.4348 16.8838 82.0837 17.9224C82.7315 18.9611 83.056 20.1398 83.056 21.4587C83.056 22.7774 82.7315 23.9562 82.0837 24.9948C81.4348 26.0334 80.5386 26.8498 79.3951 27.4431C78.2517 28.0203 76.9544 28.3085 75.5038 28.3085ZM75.5038 25.1432C76.5281 25.1432 77.3644 24.8138 78.0128 24.1541C78.6785 23.4783 79.0108 22.5799 79.0108 21.4587C79.0108 20.3377 78.6785 19.4474 78.0128 18.7879C77.3644 18.112 76.5281 17.774 75.5038 17.774C74.4801 17.774 73.6354 18.112 72.9697 18.7879C72.304 19.4474 71.9711 20.3377 71.9711 21.4587C71.9711 22.5799 72.304 23.4783 72.9697 24.1541C73.6354 24.8138 74.4801 25.1432 75.5038 25.1432Z" fill="#81818B"/>
<path d="M101.163 10.8004V28.1109H97.7581L88.8231 17.6009V28.1109H84.7271V10.8004H88.1574L97.0666 21.3103V10.8004H101.163Z" fill="#81818B"/>
<path d="M109.396 14.6088C111.529 14.6088 113.168 15.1033 114.311 16.0925C115.455 17.0652 116.026 18.5407 116.026 20.519V28.111H112.289V26.4539C111.538 27.6905 110.139 28.3085 108.091 28.3085C107.032 28.3085 106.11 28.1357 105.325 27.7894C104.558 27.4431 103.969 26.9652 103.559 26.355C103.15 25.7452 102.945 25.0525 102.945 24.2778C102.945 23.0413 103.423 22.0687 104.378 21.3598C105.351 20.6509 106.845 20.2965 108.859 20.2965H112.033C112.033 19.4556 111.769 18.8127 111.239 18.3676C110.71 17.9059 109.917 17.6751 108.859 17.6751C108.125 17.6751 107.399 17.7905 106.683 18.0214C105.983 18.2357 105.385 18.5325 104.89 18.9116L103.457 16.2161C104.208 15.7051 105.103 15.3094 106.144 15.0291C107.203 14.7489 108.287 14.6088 109.396 14.6088ZM109.089 25.7122C109.772 25.7122 110.377 25.5638 110.906 25.2669C111.435 24.9536 111.811 24.5004 112.033 23.9067V22.547H109.294C107.655 22.547 106.836 23.066 106.836 24.1047C106.836 24.5994 107.032 24.9948 107.425 25.2917C107.834 25.572 108.389 25.7122 109.089 25.7122Z" fill="#81818B"/>
<path d="M127.244 27.4678C126.852 27.7481 126.365 27.9625 125.785 28.1109C125.222 28.2425 124.624 28.3084 123.993 28.3084C122.355 28.3084 121.083 27.9048 120.179 27.0971C119.291 26.289 118.847 25.102 118.847 23.536V18.0708H116.723V15.1033H118.847V11.8638H122.841V15.1033H126.271V18.0708H122.841V23.4865C122.841 24.0469 122.986 24.4839 123.276 24.7972C123.583 25.0937 124.01 25.2421 124.556 25.2421C125.188 25.2421 125.725 25.0772 126.169 24.7478L127.244 27.4678Z" fill="#81818B"/>
<path d="M142.082 14.8066V28.111H138.293V26.5282C137.764 27.105 137.132 27.5503 136.398 27.8637C135.664 28.1605 134.871 28.3085 134.017 28.3085C132.208 28.3085 130.775 27.806 129.716 26.8003C128.658 25.7947 128.129 24.3026 128.129 22.3244V14.8066H132.123V21.7554C132.123 23.8985 133.053 24.9701 134.913 24.9701C135.869 24.9701 136.637 24.6737 137.218 24.0799C137.797 23.4701 138.088 22.5718 138.088 21.3846V14.8066H142.082Z" fill="#81818B"/>
<path d="M148.316 16.5623C148.793 15.9194 149.434 15.433 150.236 15.1033C151.055 14.7736 151.994 14.6088 153.052 14.6088V18.1697C152.608 18.1368 152.309 18.1203 152.156 18.1203C151.012 18.1203 150.116 18.4335 149.468 19.06C148.819 19.6699 148.495 20.5932 148.495 21.8296V28.111H144.501V14.8066H148.316V16.5623Z" fill="#81818B"/>
<path d="M167.513 21.5084C167.513 21.5574 167.488 21.9037 167.436 22.547H157.017C157.204 23.3712 157.648 24.0222 158.348 24.5004C159.048 24.9783 159.918 25.2174 160.959 25.2174C161.676 25.2174 162.307 25.1185 162.853 24.9206C163.417 24.7066 163.937 24.3768 164.415 23.9315L166.54 26.1571C165.243 27.5915 163.348 28.3085 160.856 28.3085C159.304 28.3085 157.93 28.0203 156.735 27.4431C155.54 26.8498 154.619 26.0334 153.97 24.9948C153.321 23.9562 152.997 22.7774 152.997 21.4587C152.997 20.1563 153.313 18.9858 153.945 17.9472C154.593 16.892 155.472 16.076 156.581 15.499C157.708 14.9055 158.962 14.6088 160.345 14.6088C161.693 14.6088 162.913 14.889 164.006 15.4495C165.098 16.01 165.951 16.8179 166.566 17.873C167.197 18.9116 167.513 20.1233 167.513 21.5084ZM160.37 17.5268C159.466 17.5268 158.706 17.774 158.092 18.2686C157.477 18.7633 157.102 19.4392 156.965 20.2965H163.75C163.613 19.4556 163.237 18.7879 162.623 18.2934C162.009 17.7823 161.258 17.5268 160.37 17.5268Z" fill="#81818B"/>
<path fill-rule="evenodd" clip-rule="evenodd" d="M19.748 1.16018C19.1395 0.820141 18.3893 0.820141 17.7808 1.16018C13.4588 3.57524 10.5437 8.09386 10.5437 13.2725C10.5437 14.0105 10.603 14.7352 10.717 15.4423C7.74179 14.4663 4.52028 14.8214 1.88898 16.286C1.27993 16.6251 0.904766 17.2526 0.905396 17.9317C0.908494 21.5141 2.83503 25.0055 6.28533 26.9297C7.97804 27.8739 9.82557 28.3225 11.6479 28.3233C11.3707 29.0824 11.2198 29.8987 11.2198 30.7493C11.2198 34.7743 14.5976 38.0366 18.7641 38.0366C22.9309 38.0366 26.3084 34.7743 26.3084 30.7493C26.3084 29.8966 26.1568 29.0786 25.8785 28.3184C27.5923 28.266 29.3184 27.8166 30.9079 26.9297C34.3586 25.0055 36.2848 21.5141 36.2874 17.9318C36.2885 17.2528 35.9131 16.6252 35.3041 16.2862C32.7767 14.8792 29.7042 14.4961 26.8291 15.3333C26.932 14.6608 26.9849 13.9727 26.9849 13.2725C26.9849 8.09386 24.0701 3.57524 19.748 1.16018ZM14.4724 13.2725C14.4724 9.90963 16.1581 6.92531 18.7644 5.06771C21.3707 6.92531 23.0564 9.90963 23.0564 13.2725C23.0564 16.6352 21.3707 19.6196 18.7644 21.4771C16.1581 19.6196 14.4724 16.6352 14.4724 13.2725ZM26.5115 19.5744C28.3256 18.5626 30.4217 18.445 32.2528 19.0851C31.9115 20.937 30.7576 22.6315 28.9436 23.6433C27.1296 24.655 25.0334 24.7725 23.2024 24.1327C23.5438 22.2806 24.6975 20.5861 26.5115 19.5744ZM4.94049 19.085C6.77148 18.4448 8.8676 18.5625 10.6816 19.5742C12.4958 20.5859 13.6493 22.2806 13.9909 24.1322C12.1598 24.7725 10.0638 24.655 8.24967 23.6433C6.43564 22.6315 5.28206 20.9368 4.94049 19.085ZM15.1485 30.7493C15.1485 28.8205 16.7673 27.2567 18.7641 27.2567C20.7609 27.2567 22.3798 28.8205 22.3798 30.7493C22.3798 32.678 20.7609 34.2419 18.7641 34.2419C16.7673 34.2419 15.1485 32.678 15.1485 30.7493Z" fill="#81818B"/>
</svg>
