<svg width="164" height="35" viewBox="0 0 164 35" fill="none" xmlns="http://www.w3.org/2000/svg">
<path d="M0.173889 23.3943L11.8335 18.3411L18.5445 22.1308L19.9002 34.564L11.6301 34.4979L12.8503 25.8539L11.4267 25.0561L4.4445 30.3753L0.173889 23.3943Z" fill="#81818B"/>
<path d="M19.2906 21.5985L29.5945 28.9783L33.6616 21.8645L25.3913 18.6066V17.0109L33.6616 13.6866L29.5945 6.63892L19.2906 14.019V21.5985Z" fill="#81818B"/>
<path d="M18.5445 13.4209L19.9002 0.987793L11.6301 1.12078L12.8503 9.76406L11.4267 10.5619L4.37672 5.24297L0.173889 12.1576L11.8335 17.2107L18.5445 13.4209Z" fill="#81818B"/>
<path d="M61.2524 16.2858V27.934H65.7034V13.0895H59.2217V16.2858H61.2524Z" fill="#81818B"/>
<path d="M61.1133 11.0038C61.5213 11.4191 62.1429 11.6267 62.9771 11.6267C63.8124 11.6267 64.424 11.4191 64.813 11.0038C65.2215 10.5702 65.4252 10.0284 65.4252 9.37848C65.4252 8.71021 65.2215 8.16846 64.813 7.75319C64.424 7.3198 63.8124 7.10303 62.9771 7.10303C62.1429 7.10303 61.5213 7.3198 61.1133 7.75319C60.7243 8.16846 60.5295 8.71021 60.5295 9.37848C60.5295 10.0284 60.7243 10.5702 61.1133 11.0038Z" fill="#81818B"/>
<path d="M45.7576 27.6087C47.0186 28.1685 48.5669 28.4486 50.4028 28.4486C52.128 28.4486 53.6111 28.1864 54.8543 27.6629C56.097 27.1393 57.0519 26.4078 57.7192 25.4686C58.4059 24.5115 58.7487 23.401 58.7487 22.1368C58.7487 20.9089 58.4248 19.8705 57.7754 19.0216C57.1443 18.1549 56.2639 17.4777 55.1325 16.9902C54.0012 16.4844 52.6934 16.1684 51.2097 16.0422L49.6521 15.9067C48.7249 15.8343 48.0571 15.5907 47.6492 15.1752C47.2407 14.7599 47.037 14.2722 47.037 13.7126C47.037 13.279 47.1489 12.8818 47.3704 12.5206C47.5935 12.1414 47.9269 11.8434 48.3721 11.6266C48.8362 11.4101 49.4016 11.3017 50.0694 11.3017C50.774 11.3017 51.3583 11.4279 51.8219 11.6809C51.9237 11.7344 52.0209 11.7915 52.1117 11.8521L52.1337 11.8672C52.1678 11.8901 52.2015 11.9139 52.234 11.9379C52.5159 12.1474 52.7401 12.3959 52.9071 12.6832C53.1475 13.0805 53.2688 13.5228 53.2688 14.0105H57.7192C57.7192 12.7101 57.4131 11.5815 56.8015 10.6245C56.1899 9.64928 55.3089 8.8999 54.1592 8.376C53.0273 7.83425 51.6644 7.56335 50.0694 7.56335C48.5485 7.56335 47.2318 7.81635 46.1188 8.32193C45.0063 8.8096 44.1348 9.51383 43.5043 10.4347C42.8916 11.3557 42.5856 12.4484 42.5856 13.7126C42.5856 15.4642 43.1888 16.8727 44.3942 17.9383C45.5996 19.0037 47.2134 19.6177 49.2347 19.7802L50.7651 19.9157C52.0072 20.0241 52.9071 20.2679 53.4636 20.6469C54.0195 21.0081 54.2978 21.5047 54.2978 22.1368C54.2978 22.4273 54.249 22.6997 54.1513 22.9543C54.0789 23.1433 53.9791 23.3222 53.8531 23.4913C53.5554 23.8703 53.1202 24.1683 52.5453 24.3854C51.9704 24.6019 51.2565 24.7102 50.4028 24.7102C49.4573 24.7102 48.6876 24.584 48.0944 24.3308C47.5006 24.0601 47.0559 23.7079 46.7583 23.2748C46.4805 22.8411 46.3419 22.3717 46.3419 21.8659H41.9183C41.9183 23.1481 42.2427 24.286 42.8916 25.2789C43.5411 26.2543 44.496 27.0311 45.7576 27.6087Z" fill="#81818B"/>
<path d="M75.6348 28.1233C74.095 28.1233 72.8528 27.943 71.9068 27.5815C70.9607 27.2025 70.2656 26.5792 69.8204 25.7125C69.3941 24.8275 69.1805 23.6359 69.1805 22.1368V16.2587H66.8715V13.0895H69.1805V9.08057H73.3253V13.0895H77.7768V16.2587H73.3253V22.2996C73.3253 23.0038 73.5112 23.5455 73.8818 23.9245C74.2714 24.286 74.8184 24.4664 75.5235 24.4664H77.7768V28.1233H75.6348Z" fill="#81818B"/>
<path fill-rule="evenodd" clip-rule="evenodd" d="M83.136 27.7984C84.1372 28.2316 85.2875 28.4486 86.5853 28.4486C87.8647 28.4486 88.9966 28.2316 89.9794 27.7984C90.9622 27.3648 91.7786 26.7599 92.4275 25.9836C93.0764 25.2068 93.5127 24.3218 93.7347 23.3289H89.6455C89.4602 23.7804 89.1079 24.1594 88.5887 24.4663C88.0695 24.7733 87.4011 24.9272 86.5853 24.9272C86.0797 24.9272 85.6282 24.8686 85.2303 24.7522C84.9273 24.6637 84.6559 24.5415 84.4155 24.3854C83.859 24.0243 83.451 23.5182 83.1912 22.8683C83.1192 22.6832 83.0578 22.4895 83.0058 22.2878C82.9528 22.0834 82.9103 21.8708 82.8783 21.6494H94.013V20.1865C94.013 18.8321 93.7164 17.5861 93.1231 16.4485C92.5293 15.2925 91.6668 14.3625 90.5359 13.6583C89.4229 12.9359 88.0506 12.5747 86.4183 12.5747C85.1757 12.5747 84.0627 12.7915 83.0799 13.2249C82.116 13.6402 81.309 14.209 80.6601 14.9314C80.0112 15.6537 79.5104 16.4756 79.1571 17.3966C78.8237 18.2993 78.6567 19.2474 78.6567 20.2407V20.7824C78.6567 21.7397 78.8237 22.6786 79.1571 23.5997C79.5104 24.5026 80.0112 25.3241 80.6601 26.0646C81.3274 26.7872 82.1522 27.3648 83.136 27.7984ZM82.9549 18.9708C82.967 18.9135 82.9801 18.857 82.9943 18.8014C83.0331 18.6483 83.0772 18.5015 83.1282 18.3613C83.1565 18.2814 83.187 18.2035 83.2195 18.1278C83.4972 17.4596 83.9057 16.954 84.4433 16.611C84.6444 16.4827 84.8622 16.3784 85.0959 16.2982C85.4896 16.1636 85.9306 16.0963 86.4183 16.0963C87.1791 16.0963 87.8091 16.2679 88.3099 16.611C88.8291 16.9359 89.2187 17.4145 89.4786 18.0465C89.4996 18.0975 89.5195 18.1495 89.5389 18.202C89.5694 18.2858 89.5983 18.3717 89.6245 18.4598C89.6639 18.5909 89.698 18.7266 89.7285 18.8668C89.7505 18.9702 89.7694 19.076 89.7862 19.1844H82.9119C82.925 19.112 82.9392 19.0409 82.9549 18.9708Z" fill="#81818B"/>
<path d="M95.8499 27.934V13.0895H99.3832V16.8282C99.4309 16.6059 99.4855 16.3926 99.5464 16.1881C99.5989 16.0157 99.6551 15.8495 99.7165 15.6899C100.106 14.6785 100.69 13.9202 101.469 13.4144C102.248 12.8907 103.203 12.629 104.335 12.629H104.529C105.679 12.629 106.634 12.8907 107.395 13.4144C108.174 13.9202 108.758 14.6785 109.147 15.6899L109.178 15.7662L109.204 15.836C109.222 15.7867 109.24 15.7381 109.258 15.6899C109.666 14.6785 110.26 13.9202 111.039 13.4144C111.818 12.8907 112.773 12.629 113.905 12.629H114.099C115.249 12.629 116.213 12.8907 116.992 13.4144C117.79 13.9202 118.393 14.6785 118.8 15.6899C119.208 16.7012 119.413 17.9654 119.413 19.4823V27.934H114.961V19.2384C114.961 18.4258 114.739 17.7667 114.294 17.2611C113.867 16.7553 113.255 16.5025 112.458 16.5025C111.66 16.5025 111.03 16.7645 110.566 17.2881C110.103 17.7937 109.871 18.4709 109.871 19.3198V27.934H105.392V19.2384C105.392 18.4258 105.169 17.7667 104.724 17.2611C104.298 16.7553 103.694 16.5025 102.916 16.5025C102.1 16.5025 101.46 16.7645 100.996 17.2881C100.533 17.7937 100.301 18.4709 100.301 19.3198V27.934H95.8499Z" fill="#81818B"/>
<path fill-rule="evenodd" clip-rule="evenodd" d="M131.303 25.0736V27.9341H134.835V18.8322C134.835 17.4597 134.557 16.3402 134.001 15.4732C133.444 14.5883 132.629 13.9293 131.553 13.4959C130.496 13.0625 129.188 12.8457 127.63 12.8457C127.293 12.8457 126.94 12.8492 126.573 12.8564C126.356 12.8608 126.133 12.8662 125.906 12.8728C125.293 12.8909 124.7 12.9179 124.125 12.9541L123.686 12.9829C123.46 12.9982 123.249 13.0132 123.049 13.0285C122.9 13.0398 122.757 13.0512 122.623 13.0625V16.7195C123.198 16.6832 123.838 16.6471 124.543 16.6111C124.74 16.601 124.935 16.5916 125.129 16.5829C125.409 16.5703 125.685 16.5593 125.959 16.5498C126.175 16.5421 126.389 16.5353 126.601 16.5297C127.269 16.5116 127.807 16.5026 128.215 16.5026C129.03 16.5026 129.624 16.6922 129.995 17.0715C130.366 17.4507 130.551 18.0196 130.551 18.7782V18.8322H127.797C126.444 18.8322 125.247 19.0038 124.208 19.347C123.17 19.672 122.363 20.1866 121.789 20.8909C121.213 21.5773 120.926 22.4621 120.926 23.5456C120.926 24.5389 121.158 25.3967 121.621 26.1193C122.085 26.8231 122.725 27.3649 123.541 27.7439C124.376 28.1234 125.34 28.3131 126.434 28.3131C127.491 28.3131 128.382 28.1234 129.105 27.7439C129.847 27.3649 130.422 26.8231 130.83 26.1193C130.902 26.0003 130.968 25.8772 131.031 25.7493C131.119 25.5685 131.198 25.3783 131.267 25.1787L131.303 25.0736ZM130.551 22.4351V21.2431H127.769C126.99 21.2431 126.388 21.4327 125.961 21.812C125.553 22.1732 125.349 22.6698 125.349 23.3018C125.349 23.5993 125.4 23.8696 125.501 24.1134C125.604 24.3577 125.757 24.5747 125.961 24.7644C126.388 25.126 126.99 25.3063 127.769 25.3063C127.917 25.3063 128.061 25.2991 128.199 25.2853C128.312 25.2736 128.422 25.2571 128.529 25.236C128.732 25.1958 128.925 25.1376 129.105 25.0624C129.513 24.8821 129.847 24.5841 130.106 24.1684C130.366 23.7532 130.515 23.1751 130.551 22.4351Z" fill="#81818B"/>
<path d="M137.499 27.9341V13.0895H141.033V17.9892C141.202 16.5905 141.628 15.4627 142.312 14.6065C143.24 13.4689 144.574 12.9 146.318 12.9H146.903V16.6381H145.79C144.566 16.6381 143.62 16.9631 142.952 17.6132C142.284 18.2453 141.95 19.1664 141.95 20.3761V27.9341H137.499Z" fill="#81818B"/>
<path d="M152.547 20.9993H154.021L158.834 27.9341H163.841L157.739 19.4174L162.756 13.0896H158.083L152.547 20.1478V8.15955H148.096V27.9341H152.547V20.9993Z" fill="#81818B"/>
</svg>
