<svg width="164" height="35" viewBox="0 0 164 35" fill="none" xmlns="http://www.w3.org/2000/svg">
<path fill-rule="evenodd" clip-rule="evenodd" d="M5.96872 8.62843C8.70907 5.12621 13.0973 2.85726 18.0432 2.85726C23.0182 2.85726 27.4287 5.15298 30.1658 8.69033C30.0493 8.80415 29.9432 8.92211 29.8471 9.03992C29.3458 9.6568 28.9686 10.4513 28.6664 11.2583C28.0578 12.881 27.5936 15.0008 27.1638 16.9858L27.1256 17.1642C26.6968 19.1456 26.2982 20.9882 25.8162 22.3561C25.5997 22.9706 25.3944 23.4051 25.2123 23.6834C25.0223 23.4029 24.8068 22.9631 24.5786 22.3398C24.0632 20.9326 23.6296 19.0187 23.1701 16.975L23.1552 16.908V16.908C22.7135 14.945 22.2451 12.8622 21.661 11.2679C21.3675 10.4671 21.0075 9.68042 20.5366 9.06927C20.0744 8.46951 19.3051 7.79263 18.1799 7.79263C17.0618 7.79263 16.289 8.46216 15.8201 9.0552C15.3401 9.66242 14.9659 10.4458 14.6576 11.247C14.0367 12.8606 13.5291 14.9712 13.0567 16.9589L13.008 17.1642C12.5402 19.1333 12.1029 20.9741 11.6065 22.3446C11.4171 22.868 11.2383 23.2662 11.0764 23.5507C10.9182 23.2675 10.7439 22.872 10.5595 22.353C10.0834 21.0117 9.66619 19.2224 9.21816 17.3006L9.13972 16.9642C8.67552 14.9753 8.17189 12.8609 7.5422 11.2423C7.22935 10.4381 6.84668 9.65076 6.3515 9.04071C6.23936 8.90264 6.11194 8.76246 5.96872 8.62843ZM4.3102 11.3176C4.44071 11.5624 4.57879 11.8659 4.72154 12.2329C5.26659 13.6339 5.72833 15.5456 6.20382 17.5829L6.29638 17.9798C6.72929 19.8387 7.17964 21.7723 7.7101 23.2662C7.99223 24.0608 8.33296 24.839 8.77112 25.4438C9.1855 26.0158 9.9289 26.7546 11.072 26.7546C12.2118 26.7546 12.9569 26.0194 13.3741 25.45C13.8161 24.8465 14.1623 24.0692 14.4502 23.2741C15.0019 21.7507 15.4717 19.7717 15.9214 17.8778V17.8777L15.9901 17.5882C16.4746 15.5498 16.9409 13.6343 17.482 12.2281C17.7326 11.5767 17.9673 11.1229 18.1716 10.8413C18.3652 11.1204 18.5864 11.5671 18.821 12.2073C19.3365 13.6145 19.7697 15.5285 20.2293 17.5721L20.2444 17.6391C20.6859 19.6021 21.1543 21.6849 21.7384 23.279C22.0319 24.0802 22.3919 24.8668 22.8629 25.4778C23.3251 26.0778 24.0943 26.7546 25.2193 26.7546C26.3503 26.7546 27.1168 26.0716 27.5735 25.4663C28.0373 24.8522 28.3861 24.063 28.6678 23.2631C29.2093 21.7267 29.6398 19.7332 30.0503 17.8367V17.8367L30.1091 17.5614C30.5512 15.5202 30.9754 13.6137 31.4993 12.217C31.6127 11.9131 31.7245 11.654 31.8311 11.4364C32.6338 13.1844 33.079 15.1146 33.079 17.1436C33.079 25.0336 26.3475 31.4301 18.0432 31.4301C9.73906 31.4301 3.0072 25.0336 3.0072 17.1436C3.0072 15.0686 3.47282 13.0968 4.3102 11.3176ZM18.0432 0C8.07823 0 0 7.67545 0 17.1436C0 26.6117 8.07823 34.2871 18.0432 34.2871C28.0084 34.2871 36.0862 26.6117 36.0862 17.1436C36.0862 7.67545 28.0084 0 18.0432 0ZM18.387 10.6021C18.387 10.6025 18.3835 10.6052 18.3764 10.609C18.3834 10.6037 18.387 10.6018 18.387 10.6021ZM17.9713 10.6041C17.9643 10.6 17.9609 10.5972 17.9609 10.5969C17.9609 10.5965 17.9644 10.5985 17.9713 10.6041ZM24.9907 23.9546C24.9907 23.9546 24.9939 23.9515 25.0004 23.9475C24.9939 23.9528 24.9907 23.955 24.9907 23.9546ZM25.4279 23.9431C25.4349 23.9471 25.4386 23.9497 25.4386 23.9502C25.4386 23.9506 25.4349 23.9484 25.4279 23.9431ZM10.7638 23.9803C10.7638 23.9798 10.7681 23.9758 10.7768 23.9701C10.7682 23.9776 10.7638 23.9807 10.7638 23.9803ZM11.3728 23.9727C11.3814 23.9785 11.3857 23.9825 11.3857 23.9829C11.3857 23.9834 11.3813 23.9807 11.3728 23.9727Z" fill="#81818B"/>
<path d="M46.0492 27.293L41.6738 13.0724H45.5063L48.1014 23.3077L51.1186 13.0724H55.4036L58.4213 23.3077L61.0463 13.0724H64.8788L60.473 27.293H56.4599L53.2611 16.6562L50.0628 27.293H46.0492Z" fill="#81818B"/>
<path d="M70.5021 27.6372C69.2148 27.6372 68.1585 27.4457 67.3338 27.0634C66.5095 26.6622 65.8958 26.1366 65.4931 25.4867C65.091 24.8367 64.8899 24.1201 64.8899 23.3365C64.8899 22.0177 65.4327 20.9473 66.519 20.1254C67.6052 19.3035 69.2353 18.8925 71.4078 18.8925H75.2098V18.5485C75.2098 17.5737 74.9179 16.8569 74.3346 16.3982C73.7514 15.9395 73.0269 15.7101 72.1622 15.7101C71.3773 15.7101 70.6932 15.8917 70.11 16.2549C69.5267 16.5989 69.1644 17.115 69.0237 17.803H65.2516C65.3524 16.7709 65.7147 15.8726 66.3378 15.108C66.982 14.3435 67.8068 13.7605 68.8122 13.3591C69.8186 12.9387 70.9447 12.7284 72.1921 12.7284C74.3247 12.7284 76.0041 13.2349 77.2316 14.2479C78.4585 15.2609 79.0722 16.6945 79.0722 18.5485V27.293H75.7826L75.4209 24.9995C74.9783 25.764 74.3546 26.3945 73.5503 26.8918C72.7654 27.3886 71.7495 27.6372 70.5021 27.6372ZM71.3773 24.77C72.484 24.77 73.3387 24.4258 73.9419 23.7378C74.5656 23.0498 74.9583 22.1991 75.1195 21.1861H71.8299C70.804 21.1861 70.0701 21.3677 69.627 21.7309C69.1849 22.0748 68.9634 22.5052 68.9634 23.0211C68.9634 23.5754 69.1849 24.0054 69.627 24.3112C70.0701 24.6169 70.6528 24.77 71.3773 24.77Z" fill="#81818B"/>
<path d="M85.1523 27.293L79.6608 13.0724H83.7038L87.5058 23.824L91.3079 13.0724H95.3514L89.8295 27.293H85.1523Z" fill="#81818B"/>
<path d="M103.116 27.6372C101.607 27.6372 100.27 27.3311 99.1025 26.7196C97.9359 26.1078 97.0209 25.2478 96.3567 24.1391C95.6926 23.0308 95.3613 21.75 95.3613 20.2974C95.3613 18.8256 95.6832 17.5163 96.3263 16.3695C96.9904 15.2227 97.8955 14.334 99.0426 13.7032C100.209 13.0533 101.577 12.7284 103.146 12.7284C104.614 12.7284 105.912 13.0342 107.039 13.6458C108.165 14.2575 109.041 15.0985 109.664 16.1688C110.308 17.2201 110.63 18.3956 110.63 19.6953C110.63 19.9056 110.619 20.1254 110.599 20.3547C110.599 20.5841 110.589 20.823 110.569 21.0715H99.1933C99.2736 22.18 99.6763 23.0498 100.4 23.6807C101.144 24.3112 102.04 24.6266 103.086 24.6266C103.87 24.6266 104.524 24.4642 105.047 24.1391C105.59 23.7953 105.993 23.3556 106.254 22.8202H110.177C109.895 23.7187 109.422 24.5408 108.759 25.2862C108.115 26.0123 107.31 26.5856 106.344 27.0063C105.399 27.4267 104.323 27.6372 103.116 27.6372ZM103.146 15.7101C102.201 15.7101 101.366 15.9682 100.641 16.4842C99.9173 16.9812 99.4548 17.7457 99.2532 18.7779H106.707C106.646 17.8413 106.284 17.0958 105.62 16.5415C104.956 15.9873 104.132 15.7101 103.146 15.7101Z" fill="#81818B"/>
<path d="M112.671 27.293V6.65015H116.534V27.293H112.671Z" fill="#81818B"/>
<path d="M126.545 27.6372C125.036 27.6372 123.699 27.3311 122.532 26.7196C121.365 26.1078 120.45 25.2478 119.786 24.1391C119.122 23.0308 118.791 21.75 118.791 20.2974C118.791 18.8256 119.112 17.5163 119.755 16.3695C120.42 15.2227 121.325 14.334 122.472 13.7032C123.638 13.0533 125.006 12.7284 126.575 12.7284C128.044 12.7284 129.341 13.0342 130.468 13.6458C131.594 14.2575 132.47 15.0985 133.093 16.1688C133.737 17.2201 134.059 18.3956 134.059 19.6953C134.059 19.9056 134.049 20.1254 134.029 20.3547C134.029 20.5841 134.018 20.823 133.998 21.0715H122.622C122.703 22.18 123.105 23.0498 123.829 23.6807C124.573 24.3112 125.469 24.6266 126.515 24.6266C127.299 24.6266 127.953 24.4642 128.476 24.1391C129.02 23.7953 129.422 23.3556 129.683 22.8202H133.607C133.325 23.7187 132.852 24.5408 132.188 25.2862C131.544 26.0123 130.74 26.5856 129.774 27.0063C128.829 27.4267 127.752 27.6372 126.545 27.6372ZM126.575 15.7101C125.63 15.7101 124.795 15.9682 124.07 16.4842C123.346 16.9812 122.884 17.7457 122.682 18.7779H130.136C130.075 17.8413 129.714 17.0958 129.05 16.5415C128.385 15.9873 127.561 15.7101 126.575 15.7101Z" fill="#81818B"/>
<path d="M142.286 27.6372C140.959 27.6372 139.792 27.4364 138.786 27.0351C137.78 26.6144 136.975 26.041 136.372 25.3145C135.769 24.5886 135.406 23.7475 135.286 22.7919H139.178C139.299 23.3458 139.621 23.8241 140.144 24.2253C140.687 24.6076 141.381 24.7987 142.226 24.7987C143.071 24.7987 143.684 24.6363 144.066 24.3112C144.469 23.9864 144.67 23.6135 144.67 23.1932C144.67 22.5813 144.389 22.1703 143.825 21.9602C143.262 21.7309 142.477 21.5111 141.471 21.3009C140.828 21.167 140.174 21.0046 139.51 20.8134C138.846 20.6223 138.233 20.3834 137.67 20.0967C137.126 19.7909 136.684 19.4086 136.341 18.9499C136 18.472 135.829 17.889 135.829 17.201C135.829 15.9395 136.352 14.8787 137.398 14.0186C138.464 13.1584 139.952 12.7284 141.864 12.7284C143.634 12.7284 145.042 13.1202 146.088 13.9039C147.154 14.6875 147.788 15.7675 147.989 17.1436H144.338C144.117 16.0924 143.282 15.5668 141.834 15.5668C141.109 15.5668 140.546 15.7006 140.144 15.9682C139.762 16.2358 139.571 16.5702 139.571 16.9716C139.571 17.3921 139.862 17.7266 140.446 17.9751C141.029 18.2236 141.803 18.4529 142.769 18.6632C143.815 18.8925 144.77 19.1506 145.635 19.4373C146.521 19.7049 147.225 20.1158 147.748 20.6701C148.271 21.2053 148.532 21.9792 148.532 22.9923C148.553 23.8718 148.311 24.6646 147.808 25.3721C147.305 26.079 146.581 26.6334 145.635 27.0351C144.69 27.4364 143.574 27.6372 142.286 27.6372Z" fill="#81818B"/>
<path d="M156.933 27.6372C155.605 27.6372 154.438 27.4364 153.433 27.0351C152.427 26.6144 151.622 26.041 151.019 25.3145C150.415 24.5886 150.053 23.7475 149.932 22.7919H153.825C153.946 23.3458 154.267 23.8241 154.79 24.2253C155.334 24.6076 156.027 24.7987 156.872 24.7987C157.717 24.7987 158.331 24.6363 158.713 24.3112C159.115 23.9864 159.317 23.6135 159.317 23.1932C159.317 22.5813 159.035 22.1703 158.472 21.9602C157.909 21.7309 157.124 21.5111 156.118 21.3009C155.474 21.167 154.821 21.0046 154.157 20.8134C153.493 20.6223 152.879 20.3834 152.316 20.0967C151.773 19.7909 151.33 19.4086 150.988 18.9499C150.646 18.472 150.475 17.889 150.475 17.201C150.475 15.9395 150.999 14.8787 152.045 14.0186C153.111 13.1584 154.599 12.7284 156.51 12.7284C158.281 12.7284 159.689 13.1202 160.735 13.9039C161.801 14.6875 162.434 15.7675 162.636 17.1436H158.985C158.764 16.0924 157.929 15.5668 156.48 15.5668C155.756 15.5668 155.192 15.7006 154.79 15.9682C154.408 16.2358 154.217 16.5702 154.217 16.9716C154.217 17.3921 154.508 17.7266 155.092 17.9751C155.675 18.2236 156.45 18.4529 157.415 18.6632C158.462 18.8925 159.417 19.1506 160.282 19.4373C161.167 19.7049 161.872 20.1158 162.394 20.6701C162.917 21.2053 163.179 21.9792 163.179 22.9923C163.199 23.8718 162.958 24.6646 162.455 25.3721C161.952 26.079 161.228 26.6334 160.282 27.0351C159.337 27.4364 158.22 27.6372 156.933 27.6372Z" fill="#81818B"/>
</svg>
