<svg width="15" height="14" viewBox="0 0 15 14" fill="none" xmlns="http://www.w3.org/2000/svg">
<path d="M3.20499 1.74977C3.2048 2.1476 3.04657 2.52905 2.76512 2.81021C2.48368 3.09138 2.10207 3.24922 1.70424 3.24902C1.30642 3.24882 0.924968 3.0906 0.643804 2.80915C0.36264 2.52771 0.204795 2.1461 0.204994 1.74827C0.205193 1.35045 0.363419 0.968997 0.644864 0.687833C0.92631 0.406669 1.30792 0.248825 1.70574 0.249024C2.10357 0.249223 2.48502 0.407449 2.76619 0.688894C3.04735 0.970339 3.20519 1.35195 3.20499 1.74977ZM3.24999 4.35977H0.249994V13.7498H3.24999V4.35977ZM7.98999 4.35977H5.00499V13.7498H7.95999V8.82227C7.95999 6.07727 11.5375 5.82227 11.5375 8.82227V13.7498H14.5V7.80227C14.5 3.17477 9.20499 3.34727 7.95999 5.61977L7.98999 4.35977Z" fill="#75757F"/>
</svg>
