<svg width="16" height="16" viewBox="0 0 16 16" fill="none" xmlns="http://www.w3.org/2000/svg">
<path fill-rule="evenodd" clip-rule="evenodd" d="M4.8 0H11.2C13.851 0 16 2.14903 16 4.8V11.2C16 13.851 13.851 16 11.2 16H4.8C2.14903 16 0 13.851 0 11.2V4.8C0 2.14903 2.14903 0 4.8 0ZM4.8 1.6C3.03269 1.6 1.6 3.03269 1.6 4.8V11.2C1.6 12.9673 3.03269 14.4 4.8 14.4H11.2C12.9673 14.4 14.4 12.9673 14.4 11.2V4.8C14.4 3.03269 12.9673 1.6 11.2 1.6H4.8ZM8 12C5.79086 12 4 10.2091 4 8C4 5.79086 5.79086 4 8 4C10.2091 4 12 5.79086 12 8C12 10.2091 10.2091 12 8 12ZM8 10.4C9.32548 10.4 10.4 9.32548 10.4 8C10.4 6.67452 9.32548 5.6 8 5.6C6.67452 5.6 5.6 6.67452 5.6 8C5.6 9.32548 6.67452 10.4 8 10.4ZM12 4.8C11.5582 4.8 11.2 4.44183 11.2 4C11.2 3.55817 11.5582 3.2 12 3.2C12.4418 3.2 12.8 3.55817 12.8 4C12.8 4.44183 12.4418 4.8 12 4.8Z" fill="#75757F"/>
</svg>
