<svg width="14" height="12" viewBox="0 0 14 12" fill="none" xmlns="http://www.w3.org/2000/svg">
<path d="M12.359 1.90097C12.9874 1.49332 13.4035 0.936922 13.6072 0.2293C12.9959 0.572016 12.387 0.807068 11.7788 0.936922C11.232 0.315595 10.5399 0 9.71002 0C8.89884 0 8.21365 0.300801 7.65446 0.885967C7.09838 1.47524 6.81762 2.19108 6.81762 3.02692C6.81762 3.28087 6.84795 3.50771 6.90862 3.70002C4.5163 3.61373 2.53619 2.56503 0.976057 0.546538C0.711627 1.04048 0.579412 1.54346 0.579412 2.06369C0.579412 3.13294 1.00639 3.98028 1.85879 4.60242C1.3727 4.55887 0.94417 4.42901 0.579412 4.21615C0.579412 4.97966 0.791734 5.61742 1.21715 6.17875C1.64413 6.73433 2.19243 7.08856 2.86206 7.23978C2.61941 7.30553 2.36354 7.33676 2.10066 7.33676C1.85801 7.33676 1.68613 7.31539 1.58425 7.26854C1.76312 7.89069 2.10066 8.39532 2.5883 8.78159C3.07438 9.16951 3.63358 9.37415 4.26199 9.39223C3.22604 10.2511 2.04155 10.676 0.701517 10.676C0.373313 10.676 0.14077 10.671 0 10.6447C1.31982 11.5504 2.78896 12 4.41442 12C6.078 12 7.54791 11.5546 8.82729 10.6637C10.1067 9.77769 11.0508 8.68461 11.6575 7.39757C12.2672 6.11218 12.569 4.77419 12.569 3.37703V2.9924C13.1585 2.52394 13.6352 1.9963 14 1.4136C13.4711 1.65441 12.9244 1.81796 12.359 1.90097Z" fill="#75757F"/>
</svg>
