<svg width="100" height="29" viewBox="0 0 100 29" fill="none" xmlns="http://www.w3.org/2000/svg">
<path d="M13.6049 8.38962C13.2583 7.75103 12.7565 7.26758 12.0997 6.93918C11.4611 6.59257 10.704 6.41921 9.82827 6.41921C8.31394 6.41921 7.10076 6.92097 6.1885 7.92438C5.27624 8.90959 4.82016 10.2323 4.82016 11.8926C4.82016 13.6622 5.29455 15.0489 6.24323 16.0523C7.21023 17.0375 8.53288 17.5301 10.2114 17.5301C11.3608 17.5301 12.3278 17.2382 13.1123 16.6544C13.9151 16.0705 14.4988 15.2313 14.8638 14.1366H8.92517V10.6884H19.1056V15.0397C18.759 16.2073 18.166 17.293 17.3268 18.2964C16.5058 19.2998 15.4567 20.1117 14.1796 20.732C12.9025 21.3523 11.4611 21.6625 9.85564 21.6625C7.95818 21.6625 6.26144 21.252 4.76543 20.431C3.28762 19.5918 2.12906 18.4332 1.28985 16.9554C0.468849 15.4776 0.0583496 13.79 0.0583496 11.8926C0.0583496 9.9951 0.468849 8.30752 1.28985 6.82971C2.12906 5.3337 3.28762 4.17514 4.76543 3.35414C6.24323 2.51493 7.93081 2.09527 9.82827 2.09527C12.1271 2.09527 14.061 2.65176 15.63 3.76464C17.2173 4.87752 18.2664 6.41921 18.7772 8.38962H13.6049ZM26.3775 8.80012C26.9248 7.96091 27.609 7.30411 28.43 6.82971C29.251 6.33711 30.1632 6.09081 31.1666 6.09081V11.0442H29.8804C28.7128 11.0442 27.8371 11.2997 27.2532 11.8105C26.6693 12.3031 26.3775 13.1788 26.3775 14.4377V21.5257H21.6978V6.25501H26.3775V8.80012ZM40.3546 21.7446C38.8585 21.7446 37.5085 21.4253 36.3043 20.7868C35.1184 20.1482 34.1788 19.236 33.4856 18.0501C32.8104 16.8642 32.473 15.4776 32.473 13.8903C32.473 12.3213 32.8196 10.9439 33.5129 9.75796C34.2061 8.55382 35.1549 7.63251 36.3591 6.99392C37.5632 6.35532 38.9132 6.03608 40.4093 6.03608C41.9054 6.03608 43.2555 6.35532 44.4596 6.99392C45.6638 7.63251 46.6124 8.55382 47.3058 9.75796C47.999 10.9439 48.3457 12.3213 48.3457 13.8903C48.3457 15.4594 47.9899 16.8459 47.2784 18.0501C46.5851 19.236 45.6272 20.1482 44.4049 20.7868C43.2007 21.4253 41.8506 21.7446 40.3546 21.7446ZM40.3546 17.6943C41.2486 17.6943 42.0057 17.3659 42.626 16.7091C43.2645 16.0523 43.5839 15.1127 43.5839 13.8903C43.5839 12.668 43.2737 11.7284 42.6534 11.0716C42.0513 10.4148 41.3033 10.0864 40.4093 10.0864C39.4971 10.0864 38.74 10.4148 38.1379 11.0716C37.5358 11.7102 37.2348 12.6497 37.2348 13.8903C37.2348 15.1127 37.5267 16.0523 38.1105 16.7091C38.7126 17.3659 39.4606 17.6943 40.3546 17.6943ZM72.7486 6.25501L68.6162 21.5257H63.4439L61.0362 11.6189L58.5458 21.5257H53.4009L49.2411 6.25501H53.9208L56.0828 17.1743L58.6553 6.25501H63.6081L66.208 17.1196L68.3426 6.25501H72.7486ZM82.1965 10.1411H79.6787V21.5257H74.999V10.1411H73.3023V6.25501H74.999V5.81715C74.999 3.938 75.5369 2.51493 76.6136 1.54793C77.6904 0.562731 79.2682 0.0701294 81.3481 0.0701294C81.6944 0.0701294 81.9502 0.0792552 82.1144 0.0974962V4.06567C81.2207 4.01094 80.5913 4.13862 80.2261 4.44881C79.8608 4.759 79.6787 5.31539 79.6787 6.11818V6.25501H82.1965V10.1411ZM99.9943 6.25501L90.416 28.7778H85.3805L88.8834 21.0057L82.6712 6.25501H87.8982L91.4285 15.806L94.9315 6.25501H99.9943Z" fill="white"/>
</svg>
