<svg width="76" height="77" viewBox="0 0 76 77" fill="none" xmlns="http://www.w3.org/2000/svg">
<path opacity="0.06" d="M55.0286 0.859375H21.2527C9.70499 0.859375 0.34375 10.2206 0.34375 21.7683V55.5442C0.34375 67.0919 9.70499 76.4531 21.2527 76.4531H55.0286C66.5763 76.4531 75.9375 67.0919 75.9375 55.5442V21.7683C75.9375 10.2206 66.5763 0.859375 55.0286 0.859375Z" fill="#5CC97B"/>
<path d="M38.1407 64.3967C52.3567 64.3967 63.8811 52.8723 63.8811 38.6563C63.8811 24.4402 52.3567 12.9159 38.1407 12.9159C23.9246 12.9159 12.4003 24.4402 12.4003 38.6563C12.4003 52.8723 23.9246 64.3967 38.1407 64.3967Z" fill="#5CC97B"/>
<path fill-rule="evenodd" clip-rule="evenodd" d="M40.8977 45.0292C39.0546 46.2479 36.8249 46.9189 34.4491 46.8208C28.44 46.5726 23.7696 41.4995 24.0178 35.4901C24.2659 29.4807 29.3387 24.8111 35.3479 25.0593C41.3561 25.3073 46.0275 30.3794 45.7793 36.3889C45.6918 38.5072 45.0047 40.4592 43.8885 42.088L51.2251 49.2115C52.1303 50.1929 52.0979 51.7099 51.1678 52.6499L51.125 52.6893L51.0798 52.7284C50.0689 53.5779 48.5543 53.4868 47.65 52.5046L40.8977 45.0292ZM34.5529 44.309C29.9306 44.1181 26.3378 40.2157 26.5287 35.5935C26.7197 30.9713 30.622 27.3785 35.2442 27.5694C39.8665 27.7603 43.4593 31.6626 43.2684 36.2848C43.0775 40.9071 39.1751 44.4999 34.5529 44.309Z" fill="white"/>
</svg>
