<svg width="76" height="76" viewBox="0 0 76 76" fill="none" xmlns="http://www.w3.org/2000/svg">
<path opacity="0.06" d="M54.9787 0H21.0213C9.41155 0 0 9.41155 0 21.0213V54.9787C0 66.5885 9.41155 76 21.0213 76H54.9787C66.5885 76 76 66.5885 76 54.9787V21.0213C76 9.41155 66.5885 0 54.9787 0Z" fill="#F6CA4F"/>
<path d="M38.0001 63.8788C52.2925 63.8788 63.8788 52.2925 63.8788 38.0001C63.8788 23.7076 52.2925 12.1213 38.0001 12.1213C23.7076 12.1213 12.1213 23.7076 12.1213 38.0001C12.1213 52.2925 23.7076 63.8788 38.0001 63.8788Z" fill="#FF6D35"/>
<path d="M47.5505 49.6729H28.4495C26.1149 49.6729 24.2048 47.7628 24.2048 45.4282V30.5718C24.2048 28.2373 26.1149 26.3271 28.4495 26.3271H47.5505C49.8851 26.3271 51.7952 28.2373 51.7952 30.5718V45.4282C51.7952 47.7628 49.8851 49.6729 47.5505 49.6729Z" stroke="white" stroke-width="2" stroke-miterlimit="10" stroke-linecap="round" stroke-linejoin="round"/>
<path d="M24.2048 31.6329L38 40.1223L51.7952 31.6329" stroke="white" stroke-width="2" stroke-miterlimit="10" stroke-linecap="round" stroke-linejoin="round"/>
</svg>
