<svg width="77" height="76" viewBox="0 0 77 76" fill="none" xmlns="http://www.w3.org/2000/svg">
<path opacity="0.06" d="M55.4036 0.265625H21.6277C10.08 0.265625 0.71875 9.62687 0.71875 21.1745V54.9505C0.71875 66.4981 10.08 75.8594 21.6277 75.8594H55.4036C66.9513 75.8594 76.3125 66.4981 76.3125 54.9505V21.1745C76.3125 9.62687 66.9513 0.265625 55.4036 0.265625Z" fill="#0089FF"/>
<path d="M38.5157 63.8029C52.7318 63.8029 64.2561 52.2786 64.2561 38.0625C64.2561 23.8465 52.7318 12.3221 38.5157 12.3221C24.2997 12.3221 12.7753 23.8465 12.7753 38.0625C12.7753 52.2786 24.2997 63.8029 38.5157 63.8029Z" fill="#1B76FF"/>
<path fill-rule="evenodd" clip-rule="evenodd" d="M25.1058 32.9688H29.7516V51.1299H25.1058C24.4063 51.1299 23.8392 50.5898 23.8392 49.9236V34.175C23.8392 33.5088 24.4063 32.9688 25.1058 32.9688Z" stroke="white" stroke-width="1.60838" stroke-linecap="round" stroke-linejoin="round"/>
<path fill-rule="evenodd" clip-rule="evenodd" d="M51.7796 47.7297C51.4855 49.9931 49.9732 51.1299 47.2848 51.1299H33.2172C31.3058 51.1299 29.7516 49.667 29.7516 47.8681V32.9905C34.2128 32.5556 36.4434 30.9982 36.4434 26.8104V24.8035C36.4434 22.6883 38.2439 20.9735 40.4649 20.9735C41.3113 20.9735 42.1361 21.2278 42.8219 21.7003C43.7671 22.3526 44.3693 23.5882 44.3693 25.3673V31.1765C44.3693 31.6707 45.2058 32.0759 46.0424 32.0759H50.5298C52.4202 32.0759 53.9535 33.4992 53.9955 35.2685C54.0235 36.448 53.2849 40.0991 51.7796 47.7297Z" stroke="white" stroke-width="1.60838" stroke-linecap="round" stroke-linejoin="round"/>
</svg>
