<svg width="123" height="123" viewBox="0 0 123 123" fill="none" xmlns="http://www.w3.org/2000/svg">
<rect x="0.3125" y="0.046875" width="10" height="10" rx="5" fill="#81818B" fill-opacity="0.2"/>
<rect x="16.3125" y="0.046875" width="10" height="10" rx="5" fill="#81818B" fill-opacity="0.2"/>
<rect x="32.3125" y="0.046875" width="10" height="10" rx="5" fill="#81818B" fill-opacity="0.2"/>
<rect x="48.3125" y="0.046875" width="10" height="10" rx="5" fill="#81818B" fill-opacity="0.2"/>
<rect x="64.3125" y="0.046875" width="10" height="10" rx="5" fill="#81818B" fill-opacity="0.2"/>
<rect x="80.3125" y="0.046875" width="10" height="10" rx="5" fill="#81818B" fill-opacity="0.2"/>
<rect x="96.3125" y="0.046875" width="10" height="10" rx="5" fill="#81818B" fill-opacity="0.2"/>
<rect x="112.312" y="0.046875" width="10" height="10" rx="5" fill="#81818B" fill-opacity="0.2"/>
<rect x="0.3125" y="16.0469" width="10" height="10" rx="5" fill="#81818B" fill-opacity="0.2"/>
<rect x="16.3125" y="16.0469" width="10" height="10" rx="5" fill="#81818B" fill-opacity="0.2"/>
<rect x="32.3125" y="16.0469" width="10" height="10" rx="5" fill="#81818B" fill-opacity="0.2"/>
<rect x="48.3125" y="16.0469" width="10" height="10" rx="5" fill="#81818B" fill-opacity="0.2"/>
<rect x="64.3125" y="16.0469" width="10" height="10" rx="5" fill="#81818B" fill-opacity="0.2"/>
<rect x="80.3125" y="16.0469" width="10" height="10" rx="5" fill="#81818B" fill-opacity="0.2"/>
<rect x="96.3125" y="16.0469" width="10" height="10" rx="5" fill="#81818B" fill-opacity="0.2"/>
<rect x="112.312" y="16.0469" width="10" height="10" rx="5" fill="#81818B" fill-opacity="0.2"/>
<rect x="0.3125" y="32.0469" width="10" height="10" rx="5" fill="#81818B" fill-opacity="0.2"/>
<rect x="16.3125" y="32.0469" width="10" height="10" rx="5" fill="#81818B" fill-opacity="0.2"/>
<rect x="32.3125" y="32.0469" width="10" height="10" rx="5" fill="#81818B" fill-opacity="0.2"/>
<rect x="48.3125" y="32.0469" width="10" height="10" rx="5" fill="#81818B" fill-opacity="0.2"/>
<rect x="64.3125" y="32.0469" width="10" height="10" rx="5" fill="#81818B" fill-opacity="0.2"/>
<rect x="80.3125" y="32.0469" width="10" height="10" rx="5" fill="#81818B" fill-opacity="0.2"/>
<rect x="96.3125" y="32.0469" width="10" height="10" rx="5" fill="#81818B" fill-opacity="0.2"/>
<rect x="112.312" y="32.0469" width="10" height="10" rx="5" fill="#81818B" fill-opacity="0.2"/>
<rect x="0.3125" y="48.0469" width="10" height="10" rx="5" fill="#81818B" fill-opacity="0.2"/>
<rect x="16.3125" y="48.0469" width="10" height="10" rx="5" fill="#81818B" fill-opacity="0.2"/>
<rect x="32.3125" y="48.0469" width="10" height="10" rx="5" fill="#81818B" fill-opacity="0.2"/>
<rect x="48.3125" y="48.0469" width="10" height="10" rx="5" fill="#81818B" fill-opacity="0.2"/>
<rect x="64.3125" y="48.0469" width="10" height="10" rx="5" fill="#81818B" fill-opacity="0.2"/>
<rect x="80.3125" y="48.0469" width="10" height="10" rx="5" fill="#81818B" fill-opacity="0.2"/>
<rect x="96.3125" y="48.0469" width="10" height="10" rx="5" fill="#81818B" fill-opacity="0.2"/>
<rect x="112.312" y="48.0469" width="10" height="10" rx="5" fill="#81818B" fill-opacity="0.2"/>
<rect x="0.3125" y="64.0469" width="10" height="10" rx="5" fill="#81818B" fill-opacity="0.2"/>
<rect x="16.3125" y="64.0469" width="10" height="10" rx="5" fill="#81818B" fill-opacity="0.2"/>
<rect x="32.3125" y="64.0469" width="10" height="10" rx="5" fill="#81818B" fill-opacity="0.2"/>
<rect x="48.3125" y="64.0469" width="10" height="10" rx="5" fill="#81818B" fill-opacity="0.2"/>
<rect x="64.3125" y="64.0469" width="10" height="10" rx="5" fill="#81818B" fill-opacity="0.2"/>
<rect x="80.3125" y="64.0469" width="10" height="10" rx="5" fill="#81818B" fill-opacity="0.2"/>
<rect x="96.3125" y="64.0469" width="10" height="10" rx="5" fill="#81818B" fill-opacity="0.2"/>
<rect x="112.312" y="64.0469" width="10" height="10" rx="5" fill="#81818B" fill-opacity="0.2"/>
<rect x="0.3125" y="80.0469" width="10" height="10" rx="5" fill="#81818B" fill-opacity="0.2"/>
<rect x="16.3125" y="80.0469" width="10" height="10" rx="5" fill="#81818B" fill-opacity="0.2"/>
<rect x="32.3125" y="80.0469" width="10" height="10" rx="5" fill="#81818B" fill-opacity="0.2"/>
<rect x="48.3125" y="80.0469" width="10" height="10" rx="5" fill="#81818B" fill-opacity="0.2"/>
<rect x="64.3125" y="80.0469" width="10" height="10" rx="5" fill="#81818B" fill-opacity="0.2"/>
<rect x="80.3125" y="80.0469" width="10" height="10" rx="5" fill="#81818B" fill-opacity="0.2"/>
<rect x="96.3125" y="80.0469" width="10" height="10" rx="5" fill="#81818B" fill-opacity="0.2"/>
<rect x="112.312" y="80.0469" width="10" height="10" rx="5" fill="#81818B" fill-opacity="0.2"/>
<rect x="0.3125" y="96.0469" width="10" height="10" rx="5" fill="#81818B" fill-opacity="0.2"/>
<rect x="16.3125" y="96.0469" width="10" height="10" rx="5" fill="#81818B" fill-opacity="0.2"/>
<rect x="32.3125" y="96.0469" width="10" height="10" rx="5" fill="#81818B" fill-opacity="0.2"/>
<rect x="48.3125" y="96.0469" width="10" height="10" rx="5" fill="#81818B" fill-opacity="0.2"/>
<rect x="64.3125" y="96.0469" width="10" height="10" rx="5" fill="#81818B" fill-opacity="0.2"/>
<rect x="80.3125" y="96.0469" width="10" height="10" rx="5" fill="#81818B" fill-opacity="0.2"/>
<rect x="96.3125" y="96.0469" width="10" height="10" rx="5" fill="#81818B" fill-opacity="0.2"/>
<rect x="112.312" y="96.0469" width="10" height="10" rx="5" fill="#81818B" fill-opacity="0.2"/>
<rect x="0.3125" y="112.047" width="10" height="10" rx="5" fill="#81818B" fill-opacity="0.2"/>
<rect x="16.3125" y="112.047" width="10" height="10" rx="5" fill="#81818B" fill-opacity="0.2"/>
<rect x="32.3125" y="112.047" width="10" height="10" rx="5" fill="#81818B" fill-opacity="0.2"/>
<rect x="48.3125" y="112.047" width="10" height="10" rx="5" fill="#81818B" fill-opacity="0.2"/>
<rect x="64.3125" y="112.047" width="10" height="10" rx="5" fill="#81818B" fill-opacity="0.2"/>
<rect x="80.3125" y="112.047" width="10" height="10" rx="5" fill="#81818B" fill-opacity="0.2"/>
<rect x="96.3125" y="112.047" width="10" height="10" rx="5" fill="#81818B" fill-opacity="0.2"/>
<rect x="112.312" y="112.047" width="10" height="10" rx="5" fill="#81818B" fill-opacity="0.2"/>
</svg>
